<?xml version="1.0" standalone="no"?>
<!DOCTYPE svg PUBLIC "-//W3C//DTD SVG 20010904//EN"
 "http://www.w3.org/TR/2001/REC-SVG-20010904/DTD/svg10.dtd">
<svg version="1.0" xmlns="http://www.w3.org/2000/svg"
 width="500.000000pt" height="500.000000pt" viewBox="0 0 500.000000 500.000000"
 preserveAspectRatio="xMidYMid meet">

<g transform="translate(0.000000,500.000000) scale(0.100000,-0.100000)"
fill="#000000" stroke="none">
<path d="M2325 4501 c-11 -5 -29 -19 -40 -31 -18 -20 -20 -39 -23 -210 -4
-217 4 -251 61 -275 75 -31 137 24 137 121 l0 54 -35 0 -35 0 0 -50 c0 -57
-22 -78 -46 -45 -21 29 -20 348 1 365 25 20 45 -5 45 -56 0 -44 0 -44 35 -44
l35 0 0 55 c0 46 -5 60 -27 85 -30 32 -75 45 -108 31z"/>
<path d="M2940 4482 c-37 -37 -43 -79 -38 -278 2 -133 6 -163 21 -185 41 -61
123 -61 164 0 22 32 23 43 23 218 0 144 -3 190 -15 213 -34 66 -106 80 -155
32z m84 -68 c3 -9 6 -92 6 -185 0 -146 -2 -170 -16 -176 -9 -3 -20 0 -25 8
-10 16 -12 352 -2 362 11 12 31 7 37 -9z"/>
<path d="M1680 4465 c0 -32 3 -35 29 -35 21 0 30 -6 35 -22 3 -13 6 -114 6
-225 l0 -203 35 0 35 0 0 225 0 225 38 0 c38 0 38 0 34 35 l-4 35 -104 0 -104
0 0 -35z"/>
<path d="M1990 4240 l0 -260 85 0 85 0 0 40 0 40 -50 0 -50 0 0 70 0 70 35 0
c34 0 35 1 35 39 0 40 -11 51 -51 51 -17 0 -19 8 -19 70 l0 70 50 0 50 0 0 35
0 35 -85 0 -85 0 0 -260z"/>
<path d="M2570 4240 l0 -260 35 0 35 0 1 138 0 137 17 -50 c10 -27 28 -89 42
-137 24 -88 25 -88 57 -88 l33 0 0 260 0 260 -35 0 -35 0 -1 -142 0 -143 -20
70 c-63 225 -58 215 -95 215 l-34 0 0 -260z"/>
<path d="M1826 3898 c-96 -12 -168 -64 -205 -149 -20 -44 -20 -65 -20 -607 1
-309 5 -562 9 -562 23 0 26 55 29 430 4 718 4 721 65 782 64 63 63 63 501 68
220 3 499 3 620 0 217 -5 221 -5 270 -33 28 -15 61 -44 75 -64 l25 -37 3 -542
c2 -488 4 -543 19 -548 9 -4 18 -5 20 -2 2 2 4 245 4 540 -1 587 1 569 -61
640 -40 45 -95 75 -152 82 -68 8 -1137 10 -1202 2z"/>
<path d="M2267 3743 c-4 -3 -7 -12 -7 -19 0 -10 10 -9 45 3 25 8 45 17 45 19
0 7 -76 4 -83 -3z"/>
<path d="M2071 3724 c0 -11 3 -14 6 -6 3 7 2 16 -1 19 -3 4 -6 -2 -5 -13z"/>
<path d="M1813 3556 c-28 -24 -28 -24 -28 -153 0 -301 9 -635 15 -583 4 37 7
44 8 23 2 -39 5 -40 32 -13 20 20 41 27 39 13 -5 -32 3 -43 30 -43 16 0 37 7
45 16 9 8 16 11 16 6 0 -10 71 -8 170 4 l45 6 -110 44 c-60 24 -116 44 -122
44 -7 0 -13 4 -13 8 0 5 -18 15 -40 22 -22 7 -40 17 -40 23 0 13 137 277 158
305 l17 22 105 -53 c170 -86 364 -189 372 -196 6 -5 -58 -54 -234 -179 l-61
-42 149 6 c82 3 154 7 160 9 8 2 12 39 13 101 1 53 7 104 12 113 9 14 10 14 5
-1 -3 -10 -2 -18 3 -18 10 0 24 61 16 68 -3 3 -5 -2 -5 -10 0 -11 -6 -14 -18
-11 -14 3 -17 12 -14 38 3 26 -1 36 -17 44 -14 8 -21 21 -21 42 0 17 -4 28 -9
25 -7 -5 -54 114 -76 191 -2 7 -28 23 -57 37 -29 13 -97 45 -151 70 l-98 46
-134 0 c-127 0 -135 -1 -162 -24z m67 -641 c7 -8 9 -15 6 -15 -4 0 -14 7 -22
15 -9 8 -11 15 -6 15 5 0 15 -7 22 -15z m-48 -77 c-7 -7 -12 -8 -12 -2 0 14
12 26 19 19 2 -3 -1 -11 -7 -17z"/>
<path d="M2837 3553 c-2 -16 -14 -64 -26 -108 -53 -192 -70 -268 -64 -279 4
-6 47 -62 96 -125 l89 -115 -44 -13 c-23 -7 -99 -24 -168 -39 -69 -14 -132
-28 -140 -31 -8 -4 -18 -5 -22 -5 -12 3 -10 -3 14 -53 18 -37 28 -46 56 -51
52 -10 102 2 150 37 38 27 56 33 118 37 57 4 75 1 78 -9 10 -30 18 -107 18
-164 -1 -33 1 -54 4 -47 10 21 22 13 19 -13 -1 -14 2 -25 6 -25 17 0 9 -25
-16 -54 -20 -23 -25 -40 -25 -83 l0 -53 -50 0 -49 0 23 -50 c15 -32 48 -72 90
-111 l66 -61 0 695 0 694 -26 27 c-25 24 -33 26 -109 26 -82 0 -83 0 -88 -27z"/>
<path d="M3353 3505 c-25 -10 -33 -20 -33 -39 l0 -25 43 19 c90 41 181 12 255
-81 23 -30 117 -164 207 -299 90 -135 172 -256 181 -270 61 -89 184 -280 198
-308 23 -45 31 -122 17 -165 -17 -50 -44 -71 -353 -277 -150 -101 -300 -202
-333 -226 -33 -25 -95 -67 -137 -94 -56 -36 -78 -55 -78 -70 0 -14 4 -19 13
-14 38 24 446 296 648 434 236 160 236 160 263 219 30 67 33 110 11 171 -13
38 -201 326 -441 675 -49 72 -105 156 -124 188 -46 76 -103 135 -154 158 -49
22 -137 24 -183 4z"/>
<path d="M3320 2998 l0 -272 27 -38 c22 -33 29 -37 40 -25 7 7 15 24 18 36 6
32 15 39 15 13 0 -12 5 -22 12 -22 6 0 4 -7 -6 -18 -13 -16 -14 -24 -5 -51 6
-17 9 -40 6 -51 -4 -17 -2 -18 16 -8 29 14 37 23 14 15 -14 -5 -16 -3 -8 12 6
10 17 24 26 31 14 12 14 15 -5 35 -11 12 -22 30 -24 41 -2 10 -14 41 -25 67
-26 61 -11 52 25 -13 15 -28 31 -50 36 -50 5 0 7 -4 4 -9 -3 -5 0 -14 8 -20
11 -9 17 -5 32 16 10 16 24 34 31 42 10 9 12 26 9 50 -31 199 -47 286 -56 289
-5 2 -10 8 -10 13 0 17 -99 157 -122 173 -12 9 -30 16 -40 16 -17 0 -18 -18
-18 -272z"/>
<path d="M3727 3003 c2 -10 16 -27 31 -38 l26 -19 -22 32 c-28 38 -42 48 -35
25z"/>
<path d="M1234 2799 c-19 -20 -37 -29 -54 -27 -14 1 -31 -1 -38 -5 -7 -5 -12
-3 -12 5 -1 8 -6 6 -15 -6 -13 -17 -15 -17 -15 -3 0 9 -6 15 -12 13 -7 -3 -26
-7 -42 -11 -26 -6 -28 -4 -24 19 14 71 -37 -14 -67 -113 -14 -44 -14 -45 38
-147 49 -99 139 -235 202 -307 50 -56 62 -74 32 -48 -15 14 -27 21 -27 16 0
-4 -8 -1 -18 8 -11 10 -29 15 -47 12 -17 -2 -47 -4 -68 -4 -27 -1 -36 -5 -32
-13 4 -7 -6 1 -21 17 -29 32 -30 25 -4 -40 12 -29 10 -32 -34 -78 -25 -27 -46
-58 -46 -69 0 -26 155 -186 188 -195 19 -4 34 4 73 43 l49 48 48 -18 c26 -11
68 -26 94 -35 l48 -16 0 -61 c0 -68 25 -114 61 -114 18 0 19 9 19 175 0 150
-2 175 -15 175 -32 0 -140 64 -192 112 -129 123 -184 267 -162 427 11 78 52
171 100 225 39 45 34 57 -7 15z"/>
<path d="M3320 2646 c0 -42 4 -55 18 -60 9 -3 22 -8 28 -11 26 -13 22 28 -7
75 -17 28 -33 50 -35 50 -2 0 -4 -24 -4 -54z"/>
<path d="M3387 2643 c-3 -5 1 -19 9 -33 l14 -25 -6 30 c-8 35 -10 39 -17 28z"/>
<path d="M3200 2611 c0 -11 6 -22 13 -24 10 -4 10 -6 0 -6 -10 -1 -13 -31 -13
-115 0 -109 1 -114 20 -109 18 5 19 14 19 132 -1 119 -6 140 -31 141 -5 0 -8
-9 -8 -19z"/>
<path d="M3320 2561 c0 -5 10 -11 23 -15 36 -9 42 -7 21 9 -21 16 -44 19 -44
6z"/>
<path d="M3322 2518 c6 -17 50 -27 66 -15 9 7 11 5 6 -9 -7 -18 -6 -18 11 -2
24 23 16 30 -41 34 -33 3 -45 1 -42 -8z"/>
<path d="M1606 2453 c-11 -73 -7 -1113 6 -1154 16 -55 73 -118 132 -145 l51
-24 625 1 c452 0 634 4 657 12 60 23 119 73 144 123 l24 49 -1 513 c-1 282 -4
515 -6 518 -3 2 -13 2 -22 -2 -14 -5 -16 -32 -16 -242 0 -188 3 -248 16 -294
16 -54 16 -60 0 -76 -14 -16 -16 -47 -16 -208 0 -211 -8 -246 -69 -297 -68
-57 -82 -58 -732 -55 l-594 3 -55 31 c-39 22 -61 43 -77 74 -22 42 -23 50 -23
340 0 484 -11 870 -25 870 -7 0 -15 -17 -19 -37z"/>
<path d="M3330 2481 c0 -5 -3 -16 -6 -25 -4 -10 -1 -16 9 -16 8 0 18 6 20 13
3 7 6 5 6 -5 1 -10 -4 -18 -11 -18 -6 0 -8 -3 -4 -7 4 -5 14 0 21 11 11 14 11
22 2 37 -12 20 -37 26 -37 10z"/>
<path d="M3854 2467 c-26 -10 -30 -14 -18 -24 7 -7 19 -13 26 -13 9 0 9 -3 -2
-10 -11 -7 2 -10 43 -10 l59 0 -29 34 c-31 38 -35 39 -79 23z"/>
<path d="M3803 2424 c0 -8 6 -14 14 -14 7 0 13 4 13 9 0 5 -6 11 -13 14 -8 3
-14 -1 -14 -9z"/>
<path d="M3755 2420 c-4 -6 -11 -8 -16 -5 -5 4 -9 0 -9 -8 0 -7 -12 -19 -26
-25 -14 -7 -23 -8 -19 -2 3 5 -3 10 -14 10 -55 0 -2 -37 66 -47 28 -4 33 -1
37 19 10 56 0 88 -19 58z"/>
<path d="M3820 2396 c0 -3 23 -17 50 -31 59 -30 67 -42 13 -19 -21 9 -43 18
-50 21 -6 2 -29 -8 -50 -22 -21 -15 -30 -25 -21 -22 24 8 41 -17 34 -51 -5
-22 -1 -33 18 -51 l24 -23 49 33 c75 50 84 60 72 75 -7 8 -7 14 1 19 5 3 10 0
10 -7 1 -9 4 -8 10 3 5 9 6 29 1 45 -7 28 -9 29 -84 32 -42 2 -77 0 -77 -2z"/>
<path d="M3584 2373 c-55 -19 -75 -64 -58 -130 4 -14 15 -23 32 -25 14 -2 28
-10 30 -18 5 -13 3 -13 -11 -2 -9 8 -22 12 -29 9 -8 -3 -5 -6 6 -6 15 -1 16
-4 7 -15 -14 -16 -5 -60 14 -76 8 -6 12 -17 9 -24 -2 -6 1 -19 8 -29 12 -15
20 -12 92 36 l78 52 -65 30 -66 31 34 27 c20 16 40 24 49 21 9 -3 16 -1 16 4
0 15 -50 52 -71 52 -10 0 -21 4 -24 10 -4 6 1 7 12 3 16 -6 16 -5 4 10 -31 38
-42 7 -15 -44 15 -30 11 -74 -7 -63 -5 3 -9 2 -8 -3 1 -4 1 -23 0 -42 -1 -28
-3 -32 -16 -21 -9 8 -13 21 -9 36 4 13 2 24 -4 24 -5 0 -12 7 -15 14 -4 10 -1
13 9 9 9 -3 14 1 14 11 0 9 6 19 14 22 12 5 11 11 -5 37 -23 38 -24 47 -5 47
8 0 16 7 20 15 3 8 4 14 3 14 -1 -1 -21 -8 -43 -16z"/>
<path d="M3668 2338 c5 -5 16 -8 23 -6 8 3 3 7 -10 11 -17 4 -21 3 -13 -5z"/>
<path d="M3765 2300 c3 -5 -2 -10 -12 -10 -17 -1 -17 -2 2 -16 18 -13 20 -13
27 3 10 28 9 33 -8 33 -8 0 -12 -4 -9 -10z"/>
<path d="M3675 2220 c-10 -11 -16 -20 -12 -20 3 0 13 -3 23 -7 13 -5 16 -3 11
10 -3 9 -2 19 3 22 6 4 10 -5 10 -19 0 -18 9 -30 30 -41 29 -15 32 -15 61 6
27 19 29 23 16 37 -20 19 -87 27 -87 10 0 -8 -5 -6 -11 5 -13 22 -22 22 -44
-3z"/>
<path d="M3481 2189 c-5 -15 -15 -45 -21 -68 -11 -42 -23 -51 -37 -28 -4 6
-17 20 -29 30 -21 17 -22 17 -49 -18 l-27 -36 26 -38 c32 -46 32 -58 1 -83
-18 -14 -25 -29 -25 -54 0 -19 3 -34 6 -34 3 0 34 19 68 43 33 23 91 60 129
82 56 33 66 43 61 60 -3 11 -6 28 -7 37 -1 9 -5 14 -9 12 -4 -3 -8 -1 -8 3 0
5 -15 33 -34 63 -35 55 -35 55 -45 29z"/>
<path d="M3320 2139 l0 -52 20 26 c11 14 20 29 20 34 0 5 -9 16 -20 26 -20 16
-20 16 -20 -34z"/>
<path d="M1786 2021 c-11 -117 -7 -498 5 -525 23 -49 53 -54 307 -48 l232 5 0
163 c0 102 -4 165 -10 169 -6 4 -8 16 -4 27 4 13 2 18 -4 14 -6 -3 -13 -2 -17
3 -3 6 -12 8 -19 5 -9 -3 -13 2 -12 17 0 12 8 24 16 27 8 3 12 1 8 -3 -7 -7
14 -35 26 -35 3 0 6 16 6 35 0 23 -6 37 -18 44 -23 12 -45 -1 -36 -22 4 -12 1
-17 -14 -17 -11 0 -23 7 -26 16 -4 10 -14 14 -24 12 -13 -4 -18 1 -20 16 -1
15 1 17 8 7 6 -11 9 -8 12 10 2 19 8 23 28 21 19 -2 22 0 13 9 -9 9 -10 16 -2
26 17 19 42 14 -367 77 l-81 12 -7 -65z m524 -121 c0 -5 -4 -10 -9 -10 -6 0
-13 5 -16 10 -3 6 1 10 9 10 9 0 16 -4 16 -10z m-342 -132 c-2 -7 3 -12 10
-10 8 1 11 -2 7 -8 -5 -8 -11 -8 -21 1 -7 6 -11 15 -8 20 8 13 14 11 12 -3z
m59 -24 c-3 -3 -12 -4 -19 -1 -8 3 -5 6 6 6 11 1 17 -2 13 -5z"/>
<path d="M2260 1970 c0 -5 5 -10 11 -10 5 0 7 5 4 10 -3 6 -8 10 -11 10 -2 0
-4 -4 -4 -10z"/>
<path d="M2210 1940 c0 -5 5 -10 10 -10 6 0 10 5 10 10 0 6 -4 10 -10 10 -5 0
-10 -4 -10 -10z"/>
<path d="M2927 1904 c-3 -3 -3 -13 0 -22 4 -12 1 -11 -10 3 -15 20 -16 20 -83
-15 -37 -19 -77 -41 -90 -48 -13 -7 -59 -52 -104 -100 l-81 -87 3 -92 3 -93
226 -2 c288 -4 269 -15 268 161 -1 117 -14 281 -18 219 -1 -33 -11 -35 -36 -8
-10 11 -22 17 -26 14 -5 -3 -6 3 -2 12 5 13 3 16 -10 11 -19 -7 -33 8 -16 19
8 5 9 3 4 -6 -6 -9 -4 -11 4 -6 9 6 8 13 -5 27 -19 21 -19 21 -27 13z"/>
<path d="M2991 1854 c-1 -15 28 -39 36 -30 3 3 1 6 -6 6 -7 0 -9 5 -5 12 4 6
3 8 -4 4 -5 -3 -13 0 -15 6 -4 8 -6 9 -6 2z"/>
<path d="M2375 1350 c-56 -62 36 -149 95 -90 24 24 26 57 4 88 -20 29 -74 30
-99 2z"/>
<path d="M1696 1100 c-53 -16 -96 -54 -122 -107 -24 -48 -25 -59 -22 -176 3
-116 5 -126 31 -166 20 -29 44 -50 80 -67 l52 -24 661 0 c468 0 671 3 695 11
53 18 99 58 120 103 15 33 19 66 19 162 0 148 -17 191 -95 239 l-48 30 -671 2
c-369 1 -684 -2 -700 -7z m4 -227 c0 -170 -8 -196 -58 -201 -30 -3 -32 -1 -32
27 0 16 5 33 10 36 6 4 10 63 10 146 l0 139 35 0 35 0 0 -147z m240 112 c0
-32 -2 -35 -30 -35 -28 0 -30 -3 -30 -35 0 -31 3 -35 25 -35 22 0 25 -4 25
-35 0 -31 -3 -35 -25 -35 -22 0 -25 -4 -25 -35 0 -32 2 -35 30 -35 28 0 30 -3
30 -35 l0 -35 -60 0 -60 0 0 175 0 175 60 0 60 0 0 -35z m250 7 c0 -15 -16
-75 -35 -132 -19 -57 -35 -107 -35 -111 0 -4 15 -9 33 -11 28 -3 32 -7 35 -35
l3 -33 -75 0 -76 0 0 33 c0 18 16 80 35 137 19 57 35 105 35 107 0 2 -13 3
-30 3 -28 0 -30 3 -30 35 l0 35 70 0 70 0 0 -28z m228 4 c17 -17 18 -33 10
-183 -1 -21 2 -62 6 -90 l9 -53 -31 0 c-28 0 -32 4 -40 43 l-10 42 -1 -42 c-1
-42 -2 -43 -36 -43 l-35 0 0 176 0 176 56 -4 c33 -3 62 -11 72 -22z m262 -11
c0 -32 -2 -35 -30 -35 -28 0 -30 -3 -30 -35 0 -28 4 -35 20 -35 16 0 20 -7 20
-35 0 -28 -4 -35 -20 -35 -16 0 -20 -7 -20 -35 0 -32 2 -35 30 -35 28 0 30 -3
30 -35 l0 -35 -60 0 -60 0 0 175 0 175 60 0 60 0 0 -35z m240 0 c0 -32 -2 -35
-30 -35 -28 0 -30 -3 -30 -35 0 -28 4 -35 20 -35 16 0 20 -7 20 -35 0 -28 -4
-35 -20 -35 -16 0 -20 -7 -20 -35 0 -32 2 -35 30 -35 28 0 30 -3 30 -35 l0
-35 -65 0 -65 0 0 175 0 175 65 0 65 0 0 -35z m172 -107 l3 -143 33 -3 c28 -3
32 -7 32 -33 l0 -29 -65 0 -65 0 0 175 0 175 30 0 29 0 3 -142z"/>
<path d="M2361 910 c0 -29 1 -32 10 -17 7 11 7 23 0 35 -9 14 -10 11 -10 -18z"/>
</g>
</svg>
